/* XPM */
static char *_b8a55e03ccd4fc1a45adb49ce6d70bfFMviAPp7fBtXygIk[] = {
/* columns rows colors chars-per-pixel */
"32 32 207 2 ",
"   c #B22C4F",
".  c #AC3053",
"X  c #B23151",
"o  c #B0355F",
"O  c #AC2D47",
"+  c #B63E67",
"@  c #8B6B4F",
"#  c #866F50",
"$  c #976257",
"%  c #9A735D",
"&  c #A8695D",
"*  c #9F4E6F",
"=  c #995A66",
"-  c #995A66",
";  c #975776",
":  c #89526C",
">  c #A45C6D",
",  c #A6586A",
"<  c #AC4B7A",
"1  c #A44C74",
"2  c #B54877",
"3  c #AB5776",
"4  c #B75A7A",
"5  c #986564",
"6  c #94607D",
"7  c #A26C66",
"8  c #A5696C",
"9  c #B06161",
"0  c #A87667",
"q  c #B37D6C",
"w  c #A26371",
"e  c #B87574",
"r  c #BA677B",
"t  c #C4497B",
"y  c #C65D7C",
"u  c #978573",
"i  c #AC886A",
"p  c #B78A6B",
"a  c #BF936D",
"s  c #A58F7C",
"d  c #AD957E",
"f  c #A99077",
"g  c #BF9E7F",
"h  c #C1946F",
"j  c #CD9C74",
"k  c #C49C7D",
"l  c #C69776",
"z  c #D19D76",
"x  c #C48676",
"c  c #C5A17F",
"v  c #CDA27A",
"b  c #D3A47B",
"n  c #DCAA7D",
"m  c #D7A67A",
"M  c #BD4D8A",
"N  c #A85883",
"B  c #BD5784",
"V  c #BC5B81",
"C  c #BB588D",
"Z  c #B15687",
"A  c #BF5C92",
"S  c #986A85",
"D  c #8F7E82",
"F  c #857392",
"G  c #996E96",
"H  c #A46B8A",
"J  c #AA668C",
"K  c #BB6484",
"L  c #A2738D",
"P  c #B57580",
"I  c #A96B94",
"U  c #BD6296",
"Y  c #A27D91",
"T  c #A37194",
"R  c #B27295",
"E  c #B16EA1",
"W  c #AD7CA0",
"Q  c #CB4684",
"!  c #CB4C8C",
"~  c #D44B8D",
"^  c #CA538F",
"/  c #CA598A",
"(  c #CE4D91",
")  c #D84E97",
"_  c #CC5494",
"`  c #C35994",
"'  c #CB5893",
"]  c #D55495",
"[  c #D55298",
"{  c #DB549D",
"}  c #D55A9A",
"|  c #E25B9E",
" . c #C86789",
".. c #D6608F",
"X. c #C8669B",
"o. c #D36797",
"O. c #E0619C",
"+. c #DD5CA3",
"@. c #DE57A1",
"#. c #E155A1",
"$. c #E957A6",
"%. c #E45AA4",
"&. c #E95AA6",
"*. c #EB5AA9",
"=. c #EA57A8",
"-. c #F45AAE",
";. c #F65DB2",
":. c #FB5CB3",
">. c #CE62A3",
",. c #DB62A2",
"<. c #DA67A5",
"1. c #DD6DB2",
"2. c #D77CB4",
"3. c #D976B3",
"4. c #DA73AB",
"5. c #E261A6",
"6. c #E365AC",
"7. c #E06BAC",
"8. c #E172AD",
"9. c #EE64B3",
"0. c #E66DB6",
"q. c #EA6BB5",
"w. c #EC6BB8",
"e. c #F461B4",
"r. c #FA61B6",
"t. c #FB64B9",
"y. c #F56CBD",
"u. c #FA6BBE",
"i. c #F766B9",
"p. c #E876B9",
"a. c #F374BE",
"s. c #FA6EC0",
"d. c #F76FC0",
"f. c #F572C1",
"g. c #FA73C3",
"h. c #F979C6",
"j. c #9F8A96",
"k. c #9B9590",
"l. c #A89788",
"z. c #B59D87",
"x. c #A68697",
"c. c #B2849D",
"v. c #A7999A",
"b. c #BEA286",
"n. c #B5A699",
"m. c #B6A596",
"M. c #AB96A2",
"N. c #A59BA1",
"B. c #BD9EB0",
"V. c #B3AAAA",
"C. c #B5B2AE",
"Z. c #BDAAB5",
"A. c #B5B3B2",
"S. c #BAB4B5",
"D. c #BDBABA",
"F. c #AEAAA6",
"G. c #C9A788",
"H. c #D4AA83",
"J. c #DFAF84",
"K. c #D0A780",
"L. c #DCB58F",
"P. c #CBAD90",
"I. c #D7B696",
"U. c #E0AE81",
"Y. c #E3B285",
"T. c #E4B58A",
"R. c #E8BA8E",
"E. c #EBBE93",
"W. c #E2BF9E",
"Q. c #C1B4AA",
"!. c #C2BDB8",
"~. c #EFC499",
"^. c #EDC094",
"/. c #F1C69B",
"(. c #C5C0BC",
"). c #EAC8A7",
"_. c #F2CAA4",
"`. c #F3CFAC",
"'. c #F4D3B4",
"]. c #F5D7BB",
"[. c #F5D8BD",
"{. c #F986CB",
"}. c #F692CF",
"|. c #F99CD4",
" X c #F990D0",
".X c #C9BCC3",
"XX c #F9A7D9",
"oX c #F9BCE1",
"OX c #C6C5C5",
"+X c #CAC3C5",
"@X c #CCCBC9",
"#X c #D3CCCE",
"$X c #D9D3CF",
"%X c #D6CED3",
"&X c #D6D2D4",
"*X c #DDDCDC",
"=X c #D9D7D7",
"-X c #E0DFDF",
";X c #F7E1CC",
":X c #F8EADC",
">X c #F9C4E5",
",X c #E4E4E4",
"<X c #ECECEC",
"1X c #E8E7E6",
"2X c #F9EEE2",
"3X c #F4F4F4",
"4X c NONE",
/* pixels */
"4X4X4X4X4X4X4X4X4X4X4X4X4X4X4X4X4X4X4X4X4X4X4X4X4X4X4X4X4X4X4X4X",
"4X4X4X4X4X4X4X4X4X4X4X4X4X4X4X4X4X4X4X4X4X4X4X4X4X4X4X4X4X4X4X4X",
"4X4X4X4X4X4X4X4X4X4X4X4X4X4X4X4X4X4X4X4X4X4X4X4X4X4X4X4X4X4X4X4X",
"4X4X4X4X4X4X4X4X4X4X4X4X4X4X4X4X4X4X4X4X4X4X4X4X4X4X4X4X3X4X4X4X",
"4X4X4X4X4X4X4X4X4X4X<XD.v.Y L J H S Y N.D.3X4X4X4X4X4X4X4X4X4X4X",
"4X4X4X4X4X4X4X3X=XM.I A _ { | t ~ ( [ _ A S M.*X3X4X4X4X4X4X4X4X",
"4X4X4X4X4X4X=XY C =.9.9.s.s.a.t X . +.d.s.X.S : T &X3X4X4X4X4X4X",
"4X4X4X4X4X+XS #.:.6.G F E  X>X|.g.d.g.g.g.w.>.>.*.; S.3X4X4X4X4X",
"4X4X4X4XS.M -.u.s.f.2.2.>.u.r.t.t. .$ & X.h.g.s.i.V M v.3X4X4X4X",
"4X4X4X.X3 o . 2 h.oX>X{.g.:.:.*.&.} } ..%.s.g.h.f.# @ ; v.4X4X4X",
"4X4X*XN -.| 5.q.|.oX{.u.%.4 , 7 7 5 , _ *.:.! } g.a.o.} _ D.3X4X",
"4X4XV.{ :.g.g.1.4.h.u.[ - a n n n z j 0 , -.~ 2 g.f.f.:.:.; *X4X",
"4X1XJ -.+.f.h.<.&  .+.0 J.n n m z z z z z = #.r.h.f.h.*.[ @.x.4X",
"4XA.A &.5 P 4.}.{.5.B a a d m.C.Q.m.z.l j p B 6.2.0.d.6.w $.J <X",
"4Xx.[ r.0.8 K XX}.e.3 s (.3X4X4X4X4X3X$XP.k w ` I I 1.i.} _ ` &X",
"4XY @.:.u.h.h.f.4.9.< @X4X4X4X4X4X4X4X4X<XG.> r.g.}.f.u.:.:.[ .X",
"4XD * $.:.g.0.T W U [ Z.4X4X4X4X4X4X4X4X4XS./ u.{.XXg.r.:.^ - A.",
"4Xk.i e } t.y.0.0.9.;.X.Z.3X4X4X4X4X4X3X-XJ %.g.7.<.i.:.$.q p (.",
"4XA.g Y.p =.r.g.h.g.t.:.{ R B.@X%X#X.Xc.Z / 9.g.6.O t -.r n c @X",
"4X1Xl.R.n ( $. . .w.g.t.-.4 $ : Z Z Q | 9 , q.g.g.%.) %.e ^.b.-X",
"4X4XC.H.n K y y  .o.g.s.X.8 K K r.:.:.w.+.f.s.u.r.:.:. .m T.l.4X",
"4X4X*Xz.L.e ] :.r.r.:.*.*.;.u.g.g.d.d.g.s.r.&.%.O.|  .l T.i (.4X",
"4X4X4XS.f m e / ' 3 8 0 7 Z *.r.s.+   ) *.r x z b b J.R.K.F.3X4X",
"4X4X4X3XF.K.T.p p b T.T.Y.% < ;.:.( Q [ 3 m U.E./.E.R.K.u 3X4X4X",
"4X4X4X4X4XC.d _._.[.;X`._.~.k 5 * < 3 8 v J.^.R.J.n v v.<X4X4X4X",
"4X4X4X4X4X3XOXz.I.[.:X:X;X].'.W.G.k k n Y.^.T.n J.k m.1X4X4X4X4X",
"4X4X4X4X4X4X4X1X!.z.P.).;X2X2X2X:X'./.~.~.^.b b.m.=X3X4X4X4X4X4X",
"4X4X4X4X4X4X4X4X4X,XA.l.d G.W._._./.~.L.c d n.@X3X4X4X4X4X4X4X4X",
"4X4X4X4X4X4X4X4X4X4X4X4X4X*XOXA.A.A.S.@X1X4X4X4X4X4X4X4X4X4X4X4X",
"4X4X4X4X4X4X4X4X4X4X4X4X4X4X4X4X4X4X4X4X4X4X4X4X4X4X4X4X4X4X4X4X",
"4X4X4X4X4X4X4X4X4X4X4X4X4X4X4X4X4X4X4X4X4X4X4X3X4X4X4X4X4X4X3X4X",
"4X4X4X3X4X4X4X4X4X4X4X4X4X4X4X4X4X4X4X4X4X4X4X4X4X4X4X4X4X4X4X4X"
};
