/* XPM */
static char *result[] = {
/* columns rows colors chars-per-pixel */
"32 32 169 2 ",
"   c #1B172E",
".  c #1D192F",
"X  c #1E1930",
"o  c #231D34",
"O  c #2A1E35",
"+  c #252137",
"@  c #2D2037",
"#  c #2E2139",
"$  c #2C283E",
"%  c #31233A",
"&  c #332D44",
"*  c #353246",
"=  c #373248",
"-  c #3A344A",
";  c #3D394D",
":  c #403B4F",
">  c #543C4D",
",  c #443C52",
"<  c #483F56",
"1  c #5C3F51",
"2  c #5C424E",
"3  c #4A4357",
"4  c #4D4559",
"5  c #4E485A",
"6  c #5D4252",
"7  c #52465D",
"8  c #524B5D",
"9  c #63484F",
"0  c #634654",
"q  c #654952",
"w  c #6C4F55",
"e  c #63485A",
"r  c #6B4B5A",
"t  c #714E5C",
"y  c #6F5056",
"u  c #66525F",
"i  c #705056",
"p  c #74535A",
"a  c #7A565F",
"s  c #564B61",
"d  c #5A4C64",
"f  c #5F4F69",
"g  c #5C5165",
"h  c #5D5A67",
"j  c #5F5C68",
"k  c #6F4C60",
"l  c #664C61",
"z  c #734F61",
"x  c #63546B",
"c  c #68556F",
"v  c #655D6D",
"b  c #765262",
"n  c #7A5465",
"m  c #6B5571",
"M  c #6D5A73",
"N  c #765771",
"B  c #725D77",
"V  c #755D79",
"C  c #795E7C",
"Z  c #6B6472",
"A  c #726876",
"S  c #756079",
"D  c #79617D",
"F  c #7A6E7E",
"G  c #737077",
"H  c #79767C",
"J  c #825E66",
"K  c #8A5F6E",
"L  c #82666C",
"P  c #91666F",
"I  c #92696E",
"U  c #99706F",
"Y  c #996B75",
"T  c #9E7272",
"R  c #9F707C",
"E  c #A17576",
"W  c #A67779",
"Q  c #A7797B",
"!  c #7F6581",
"~  c #826482",
"^  c #866A86",
"/  c #896B87",
"(  c #8B6E8A",
")  c #906F8C",
"_  c #837184",
"`  c #8E718B",
"'  c #827E83",
"]  c #93728E",
"[  c #9C7A94",
"{  c #987A92",
"}  c #A77682",
"|  c #AC7C83",
" . c #888387",
".. c #9A8095",
"X. c #B38486",
"o. c #B58884",
"O. c #BA8B87",
"+. c #B18189",
"@. c #B7898B",
"#. c #BC8D8A",
"$. c #A38199",
"%. c #A9869D",
"&. c #AC889F",
"*. c #A3889B",
"=. c #B88B98",
"-. c #A09696",
";. c #B89499",
":. c #ACA19E",
">. c #BAA19A",
",. c #AE8CA2",
"<. c #B291A5",
"1. c #BA9CAB",
"2. c #C2938E",
"3. c #C39694",
"4. c #C79997",
"5. c #CA9B95",
"6. c #CA9D99",
"7. c #CEA19A",
"8. c #D1A49E",
"9. c #CFA5A5",
"0. c #D5AAA0",
"q. c #D8AFAA",
"w. c #C0B3AF",
"e. c #DFB8AF",
"r. c #C5A6B1",
"t. c #C6A9B3",
"y. c #C9ABB3",
"u. c #CDB0B6",
"i. c #C3B5BE",
"p. c #CABDBC",
"a. c #D0B6BB",
"s. c #D3BABD",
"d. c #EAC7B6",
"f. c #ECC9B7",
"g. c #ECCCBA",
"h. c #E4CBBF",
"j. c #EDD2BF",
"k. c #F0D1BC",
"l. c #C6B7C0",
"z. c #C6B8C0",
"x. c #D6BEC1",
"c. c #D7C0C1",
"v. c #DBC3C1",
"b. c #DEC9C4",
"n. c #D9C6CC",
"m. c #DCCACE",
"M. c #D6C4CC",
"N. c #DCCAD0",
"B. c #E3CDC2",
"V. c #E7D0C3",
"C. c #E6D4C9",
"Z. c #EDDCCC",
"A. c #E6DAD7",
"S. c #EFE0CF",
"D. c #F6E7CF",
"F. c #EFE2D1",
"G. c #F2E5D2",
"H. c #F8EED5",
"J. c #F5EDD9",
"K. c #E7E1E2",
"L. c #EEEAE8",
"P. c #E8E4E4",
"I. c #F3ECE8",
"U. c #F8F3E7",
"Y. c #F9F4ED",
"T. c #FAF9EF",
"R. c #F6F2E3",
"E. c #FDFCF5",
"W. c #FEFFFB",
/* pixels */
"W.W.W.W.W.W.W.W.W.W.W.W.W.W.W.W.W.W.W.W.W.W.W.W.W.W.W.W.W.W.W.W.",
"- ; ; 3 , 3 < 3 4 7 s s f x m m m m x x x c m V V m m x d 7 < ; ",
"- ; ; ; < < 3 7 7 d f l x m V V C C M M B V C ! ~ ! V m f s , - ",
"- ; ; ; , < s s d f m m V V ~ / ( ( ^ ^ ^ ( ) [ [ ] ( ~ m d , - ",
"- ; ; ; , < s s f m V ~ ~ ^ ] [ [ %.[ [ [ [ %.<.<.,.$.] V x & * ",
"; : : : , , < d m V ~ ] $.%.,.1.r.y.y.r.y.a.s.c.B.c.y.=.;.>.% & ",
"; , : , < < s s N ! [ %.1.r.y.s.b.C.C.C.C.Z.G.J.U.U.Y.W.E.p.# $ ",
"; ; : < > 1 e l V K &.r.B.G.R.T.W.W.W.W.W.W.W.W.W.W.W.W.M.i.+ + ",
"; ; , < > 0 r n Y } 9.V.W.W.W.W.W.E.W.W.E.W.W.W.W.W.W.E.M.i.o + ",
"; , , : 1 > z K R | q.B.W.E.W.W.W.W.W.W.W.W.W.W.W.W.W.W.n.i.+ X ",
": : : < 0 > z P Q =.e.V.W.W.E.W.W.W.W.W.W.W.W.W.W.W.W.W.M.i.O X ",
"- - , : 0 1 z Y | 3.d.Z.W.W.W.W.W.W.W.W.E.W.W.E.W.W.W.W.M.i.O . ",
"- - ; : e 1 n E @.5.f.Z.W.W.W.W.W.W.W.W.W.W.W.W.W.E.W.W.n.i.o X ",
"= - - - q 1 z E @.6.g.Z.W.W.W.W.W.W.W.W.W.W.W.W.W.W.W.W.n.i.O . ",
"= = * = q 2 p E 2.6.k.S.W.W.W.W.W.W.W.E.W.E.W.E.W.W.W.W.m.i.O . ",
"* * = = q 2 t U | 5.f.Z.W.W.W.W.W.W.W.W.W.W.W.W.W.W.W.W.N.i.O . ",
"* * = = w 2 t T o.5.d.Z.W.W.E.W.W.E.W.W.W.W.W.W.W.W.W.W.m.i.@ . ",
"* = & - y 0 p T O.5.d.Z.W.W.W.W.W.W.W.W.W.W.W.E.W.W.W.E.m.i.O . ",
"- - - - i y p W 2.5.g.D.W.W.W.W.W.W.W.W.W.W.W.W.W.W.W.W.N.P.% . ",
"- - - - 6 L I Q 5.8.V.H.E.W.W.W.W.W.W.W.E.W.W.W.W.W.W.W.W.K.% . ",
"* * - - u L I T 2.8.k.H.W.W.W.E.W.W.W.W.W.W.W.W.W.W.W.W.m.i.@ . ",
"& & & & p i r E O.7.g.D.W.W.W.W.W.E.W.E.W.W.W.W.W.W.W.W.m.i.# X ",
"& & & & p i w E O.7.k.D.W.E.W.W.W.W.W.W.W.W.W.W.W.W.W.W.B.z.@ . ",
"& & & & p p t Q 2.8.j.G.W.W.W.W.W.W.W.W.W.W.W.E.W.W.W.W.n.i.O   ",
"& * * * p a z Q #.6.g.G.W.W.W.W.W.W.W.E.W.E.W.W.W.W.W.W.v.l.%   ",
"* & * * i p r T o.4.f.G.W.W.W.W.W.W.W.W.W.W.W.W.W.W.W.W.x.l.%   ",
"& & & $ 0 w J P X.4.g.G.W.W.W.W.W.E.W.W.W.W.W.W.E.W.W.W.W.W.%   ",
"G H !  .-.:.w.p.m.A.L.Y.E.W.W.E.W.W.W.W.E.W.W.W.W.W.E.E.I.L.%   ",
"j j v v Z A F _ { ..1.t.a.x.x.c.c.s.c.s.x.c.x.x.a.s.i.1.[ ^ v h ",
"3 5 5 s s g c Z D ! _ ` / / ` ] ` ` ` ` ` ` ` ( ^ / ^ ! B v s 5 ",
"3 3 5 8 s f x v M M M M M S D B B B M S V B B B M M M M f g 5 3 ",
"W.W.W.W.W.W.W.W.W.W.W.W.W.W.W.W.W.W.W.W.W.W.W.W.W.W.W.W.W.W.W.W."
};
