/* XPM */
static char *result[] = {
/* columns rows colors chars-per-pixel */
"32 32 144 2 ",
"   c #493710",
".  c #4D3B14",
"X  c #513E12",
"o  c #513F1A",
"O  c #554213",
"+  c #594513",
"@  c #5E4A15",
"#  c #53411E",
"$  c #5B481F",
"%  c #614C15",
"&  c #6E5A19",
"*  c #725E17",
"=  c #725D1C",
"-  c #7C661D",
";  c #5F4C26",
":  c #5E4B2B",
">  c #614E26",
",  c #614E2C",
"<  c #665223",
"1  c #685424",
"2  c #65522F",
"3  c #6B572C",
"4  c #745E22",
"5  c #735D29",
"6  c #645232",
"7  c #695735",
"8  c #6D5B3B",
"9  c #7D6620",
"0  c #7C6837",
"q  c #7F6C39",
"w  c #756242",
"e  c #786747",
"r  c #7E6B4C",
"t  c #816B17",
"y  c #846C1B",
"u  c #8E7617",
"i  c #8B721B",
"p  c #917817",
"a  c #90761F",
"s  c #947B1B",
"d  c #987F1B",
"f  c #846D21",
"g  c #877023",
"h  c #897125",
"j  c #967C21",
"k  c #987F21",
"l  c #816C3C",
"z  c #917B34",
"x  c #866D4B",
"c  c #886F4C",
"v  c #8A714E",
"b  c #867453",
"n  c #8C7451",
"m  c #8E7955",
"M  c #8D7A5B",
"N  c #907C57",
"B  c #927E5D",
"V  c #9D831D",
"C  c #A1861E",
"Z  c #A58A1E",
"A  c #AA8E1F",
"S  c #AE911E",
"D  c #B3951F",
"F  c #B7981F",
"G  c #9C8123",
"H  c #A08622",
"J  c #A58A21",
"K  c #A98E22",
"L  c #A38829",
"P  c #AD9121",
"I  c #AC9028",
"U  c #B29521",
"Y  c #B69821",
"T  c #BC9D21",
"R  c #B39528",
"E  c #BC9D2A",
"W  c #A68E36",
"Q  c #BFA02B",
"!  c #BBA13F",
"~  c #C3A323",
"^  c #C8A723",
"/  c #CBA923",
"(  c #C7A72E",
")  c #CBAA2B",
"_  c #D1AE22",
"`  c #D5B123",
"'  c #DBB621",
"]  c #DEB921",
"[  c #D3B12D",
"{  c #C3A633",
"}  c #C8A930",
"|  c #D4B230",
" . c #E4BD21",
".. c #EBC220",
"X. c #958053",
"o. c #A28D44",
"O. c #AA9858",
"+. c #8F846E",
"@. c #938161",
"#. c #9A8465",
"$. c #9C8867",
"%. c #968468",
"&. c #988468",
"*. c #9D896B",
"=. c #978A71",
"-. c #9B8E77",
";. c #9C917E",
":. c #A29175",
">. c #A5947C",
",. c #BEAE79",
"<. c #AC9C84",
"1. c #B1A28B",
"2. c #B7A989",
"3. c #AEA597",
"4. c #B1A797",
"5. c #B6A993",
"6. c #B4AB9C",
"7. c #BAAF9F",
"8. c #B6AFA3",
"9. c #B9B1A4",
"0. c #BAB3A8",
"q. c #C2B79C",
"w. c #C6BFB5",
"e. c #C7C0B4",
"r. c #C6C1B9",
"t. c #CCC5BC",
"y. c #CEC9C2",
"u. c #D1CBC4",
"i. c #D2CEC9",
"p. c #D4D1CD",
"a. c #D8D4CF",
"s. c #D6D3D0",
"d. c #D9D6D4",
"f. c NONE",
"g. c NONE",
"h. c NONE",
"j. c NONE",
"k. c NONE",
"l. c NONE",
"z. c NONE",
"x. c NONE",
"c. c NONE",
"v. c NONE",
"b. c NONE",
/* pixels */
"b.b.c.l.b.c.c.l.b.z.h.h.*.N x c n n c @.5.d.c.z.c.l.b.c.z.z.b.c.",
"b.b.c.c.b.c.c.l.x.a.$.v v v x c v n x n n v $.g.z.z.v.c.z.z.b.c.",
"j.l.c.b.z.x.l.x.>.n v v x x m M b M m v c n c v g.v.j.c.b.b.k.c.",
"j.l.c.b.j.z.t.n v c v r & - s S V d d & < b x v v :.f.z.b.b.k.c.",
"b.b.c.k.x.h.m v v v , - d u V S V V Z d V - 6 v v x >.j.l.z.b.c.",
"v.v.c.k.k.5.n n n > i S V p G D G V Z d G P s ; v x n t.j.x.v.c.",
"j.z.x.c.i.c n n ; - S Z s u V q.k V A V J U D V N v v b l.v.k.c.",
"b.v.z.f.1.v v w t V Z V V V V z o.V A V K U S F < v v v e.j.b.c.",
"v.v.z.d.n v n - Z V K V d d O.Y U o.A V I U J K p x x n #.h.v.c.",
"b.c.j.i.n c 6 V F J F C k W g R I G L G P K K K T - v c n g.c.c.",
"k.j.h.a.v c < T T J F Z w 7.>.6.3.9.3.4 U K K J T p X.v n z.h.c.",
"b.c.h.w.n x = T T K T Z r p.p.+.. p.p.0 Q K P K Q C m v n g.c.c.",
"v.c.j.t.n c = ~ T K ~ Z =.i.p.# # 0.p.q Q S A V Q F b n n h.c.c.",
"k.j.h.h.v c = ~ T P ~ J -.r.i.p.6 p.p.q T S S V F D b v n z.h.c.",
"b.v.j.p.v x e ^ ~ ~ ~ J e ;.6.0.8.8.;.5 Q S P V D D X.n v g.c.c.",
"b.v.z.p.x c 7 } ^ ^ Q Z Z K Z U / P ^ R / P U Z U A X.v v h.v.c.",
"v.c.l.d.c x 8 ^ ^ / Q P J y d S / D ~ Y / S U A G Z M v n h.c.c.",
"l.l.l.l.m x r T X C Q P d   O V / Q F < ~ D U V # @ m c M c.j.c.",
"b.b.z.d.*.x b . + X h U         S ^ . $ . K S   #   n c B h.v.c.",
"v.v.x.g.<.x B   X % ; %   + + . @ O O % O . O . a # c n >.j.v.c.",
"j.l.z.z.7.c B @ T / 1 X + S D V & O i ` T O . O ~ 4 v n 7.c.j.c.",
"j.l.z.c.y.c N d F ' ( Y S S D D D V T ~ / F Q 2.~ 3 v v u.c.j.c.",
"b.b.c.g.g.v n s D ' ) T D D D F T _ ~ T ' T 5.>.{ 7 n n y.j.b.c.",
"b.b.z.h.h.x n f F ] Q T D F F F T _ _ F ' T @.8.T 8 v v d.z.v.c.",
"j.l.x.c.p.c n 9 F  .^ ~ F F F ~ T ` _ T ] ^ T h T e n n k.v.k.c.",
"b.b.x.g.j.c b 6 !  .F ) F F F T ~ ' _ ~  .^ ~ D T b v n d.j.b.c.",
"b.b.c.j.j.b v e ,. .~ ) F F T T ~ ] ^ T  .] ^ T U M n n d.k.b.c.",
"b.b.c.j.h.%.n b F ] Q [ F F T T ~ ] / Q  ...^ ~ Z B c n f.z.v.c.",
"k.k.c.v.d.<.c B D  .~ ` F T F Q ^ ../ T ....^ ~ V M x N z.b.k.c.",
"b.b.c.j.l.9.c B Z  .~ / ~ F ~ T ^ ../ ~ ....) ~ a n x B g.l.b.c.",
"v.v.c.l.k.u.v B C ..' ~ ~ F T ^ / ../ ~ ' .._ ~ i n n &.h.z.b.c.",
"k.k.c.b.g.s.c b p ....~ ~ T ~ ^ / ..^ ^ ' ..` ~ f v v -.c.b.j.c."
};
