/* XPM */
static char *fd1c4ddf886b41cac74f2a420b5e3550bJ9kyrJ992ouTLlR[] = {
/* columns rows colors chars-per-pixel */
"32 32 151 2 ",
"   c #4A7527",
".  c #497529",
"X  c #4D7A2B",
"o  c #577C27",
"O  c #537D2B",
"+  c #547B32",
"@  c #587C34",
"#  c #567B38",
"$  c #4C8124",
"%  c #528824",
"&  c #55842D",
"*  c #59862B",
"=  c #56892D",
"-  c #5C8C2D",
";  c #5E912D",
":  c #5F992A",
">  c #4F8230",
",  c #558433",
"<  c #5B8533",
"1  c #578935",
"2  c #5C8B34",
"3  c #5D873D",
"4  c #5E8A39",
"5  c #5D9233",
"6  c #5E9A31",
"7  c #5B9539",
"8  c #628C2D",
"9  c #62942C",
"0  c #69952E",
"q  c #659B2E",
"w  c #6B9D2D",
"e  c #719C2F",
"r  c #608635",
"t  c #628D34",
"y  c #628D3A",
"u  c #6B8F3F",
"i  c #649434",
"p  c #6A9534",
"a  c #659A34",
"s  c #6B9B34",
"d  c #64933A",
"f  c #6A953C",
"g  c #659A39",
"h  c #6C9B3B",
"j  c #719E34",
"k  c #729D3B",
"l  c #6DA12D",
"z  c #71A22E",
"x  c #76AB2F",
"c  c #67A133",
"v  c #6DA233",
"b  c #67A239",
"n  c #6DA13B",
"m  c #6EA03B",
"M  c #6EA138",
"N  c #6FA638",
"B  c #6EA13D",
"V  c #6FA73D",
"C  c #6CA23B",
"Z  c #6BAA38",
"A  c #73A332",
"S  c #73A237",
"D  c #70A435",
"F  c #72A635",
"G  c #73A637",
"H  c #75A534",
"J  c #73A334",
"K  c #79A737",
"L  c #78A437",
"P  c #75A836",
"I  c #73AA35",
"U  c #7AAB32",
"Y  c #79AB36",
"T  c #72A238",
"R  c #74A338",
"E  c #75A13B",
"W  c #72A638",
"Q  c #74A43B",
"!  c #77A43A",
"~  c #73A13D",
"^  c #70A43C",
"/  c #73A43E",
"(  c #74A43F",
")  c #73A43C",
"_  c #78A739",
"`  c #7BA73D",
"'  c #7AA63C",
"]  c #74AB3B",
"[  c #7AA93B",
"{  c #7FAB39",
"}  c #7AAF38",
"|  c #7AAC3B",
" . c #7BAD3B",
".. c #78A83C",
"X. c #7BAA3D",
"o. c #7BAB3C",
"O. c #71B13E",
"+. c #7BB23C",
"@. c #5A8440",
"#. c #628A42",
"$. c #648F42",
"%. c #679240",
"&. c #699543",
"*. c #6B9742",
"=. c #6C9542",
"-. c #6A9441",
";. c #679A42",
":. c #6F9A40",
">. c #6E9942",
",. c #6A9944",
"<. c #6C9B43",
"1. c #6F9D49",
"2. c #709B42",
"3. c #719D42",
"4. c #709D46",
"5. c #719F45",
"6. c #7A9F45",
"7. c #749F49",
"8. c #739B49",
"9. c #6CA141",
"0. c #74A040",
"q. c #73A741",
"w. c #74A642",
"e. c #73A447",
"r. c #75A442",
"t. c #7AA543",
"y. c #76A940",
"u. c #75AA42",
"i. c #79AB40",
"p. c #7FAB41",
"a. c #7BAB43",
"s. c #73A449",
"d. c #7BA54C",
"f. c #7BAB49",
"g. c #7EB040",
"h. c #82AE37",
"j. c #80AF3B",
"k. c #83AD3D",
"l. c #82B43D",
"z. c #84B43C",
"x. c #82B33D",
"c. c #88B539",
"v. c #8ABA3F",
"b. c #82AD45",
"n. c #84AF49",
"m. c #83B344",
"M. c #88B543",
"N. c #86B24A",
"B. c #82B14C",
"V. c #8AB94B",
"C. c #84B251",
/* pixels */
"f i < < * d A s s & k p p.i h.a f j a a e *.i i d & = i & f h v ",
"2 >.>.p f 9 p s t - U i 3.e.p q #.2 = ~ + 7.~ + 9 - c 3.y v a - ",
"4 d a d - 4 j k f B  .0._ q h j 7 d a R a b i :.2 < ; / p p p ~ ",
"2 i i 1 3 8.T < i F b t p - & , , w - t ; 9 - t ` <.1 s s h f p ",
"< a r - 3 a 2 F z.p < T s < s d h d t r t f + p W p , +   j h / ",
"4 i s _ h h q h i.u.d v F { % : t 2.j D d *.g 2 f i a i t < d 9 ",
">.8 r =.9 } 2 A v 5 < 9 i t h 8 < i - q , =.9 < s _ d p D q.q.s ",
"~ t k 7 0 2 t g w a f w w l.A o.9.f 1.1 t t O 2 t 8 h 6 X v F 2 ",
"t h s < 8 y t 0 i X.o.N.N l P s v h g 5 s M =.O y O a e & - G w ",
"e.C f.( u p - U d m.i p A & * t l < *.s 2 f M 9 9 3.f s 2 & *   ",
"5 a f.A r s y T L v.k +...<.] p C h 1 4 9 o.M O w * X & 5 * ; a ",
"0 p # K k m.&.B.L y g K w d a } 5 P f.g #  .( [ s +.4 ; @ - y d ",
"2 g t.h H : L w < t k s h d e l.T ~ B.w s x <.V @.i ' t I f l w ",
"O a ` ' 4 2 p , o * y d i a i < c F 0 2 * w t.H n r.4.i O a A h ",
"! g d.t.f < i g 8 X y s a v t.h f O L c.z s i v M < k 2 g = r.d ",
"d e.b.s.f s y ..~ B k ! k.- ' 1 p 5 2 & i 8 w 2 t X a p.g 9 ( p.",
"f i h f s ..X.e $ - 0 a j y p 1 2 h a h r , i a g = a i q 5 : s ",
";.n / g X.t.N.M.l s < M j t.r.4 h d g a g P ~ s l d <.h v 1 i T ",
"f.@ 2 f s R ; e P 8 s t.T ~ a i.u.a ' y s q _ g K z 4 g i i i c ",
"X <.f f e D G p r.O 8 x.h } H & t i >.V M 0 z n s 2 v 9 - & s A ",
"- ..s ' b.1 z.m.F t x p p 4 i k 4.y j t.f 2 2 a a 0 , q H 2 2 h ",
"d T ~ s M.t.x H 3.a K %.9 t M V.r a k < y - y f X 8 s d R s X.=.",
"f.T r.s u.b.a 9.f.! k >.H h v m.s 2 b 9.U c g e * 7 t : v k 9 s ",
"a *.C r.g s 5 ] / s h.[ p 2 ! G V M v a t.t.v x ! g g B 9 n f * ",
"5 u.f.7.f d y v ..h s i e.%.a k f 9 p < 5 t.h a h f H j s a ; ; ",
"o.s i.<.g d t 0 h .._ p u.C.4.t.k.y t.5 7 s.<.s 2 H g & >.w 9 w ",
">.' 6.d ' n ..A a ] g.j i a ' O.v ( 2 s i w ;.h 8 a b ] Z Z F k ",
"t.~ 8.8.b.4 i { n.p.m.N h i.a M w A k h a M f h h H 9 7 V s ! < ",
"s.d.i.T B.i.9.9.m.X.f f.2 } u.s.u.i h v 9 2 N n f s l.b C p.N a ",
"7 ~ i.u.f.} T N i k 0.N 2 T M t.b 2.P q * v 4 2 { b ] 5 W ,.h } ",
"h M h h f.+.u.p.n.o.} a i.C a e.f.! 4 < p 2 a u.m.a f.p.q.M D W ",
"e.i a ..v ( ;.+.1 h *.W i i.b i m.k 9 h D a i k a h B < s s Z K "
};
