/* XPM */
static char *f46bc8a20d8e4ee1efefd4357e6e9905KMwZpl6a7CnhMjII[] = {
/* columns rows colors chars-per-pixel */
"32 32 146 2 ",
"   c #6B4B2F",
".  c #6E4B32",
"X  c #744A32",
"o  c #77553F",
"O  c #735641",
"+  c #795B45",
"@  c #7F634F",
"#  c #985D47",
"$  c #9D614F",
"%  c #8F6856",
"&  c #9A6A59",
"*  c #90745F",
"=  c #937761",
"-  c #907B66",
";  c NONE",
":  c #A16E60",
">  c #BB6E60",
",  c #A27263",
"<  c #A47B6D",
"1  c #AA7B6C",
"2  c #B07A6D",
"3  c #A67F71",
"4  c #B17E70",
"5  c #CC766A",
"6  c #CC786C",
"7  c #D67B70",
"8  c #E27E76",
"9  c #E37E78",
"0  c #9F8475",
"q  c #9C8979",
"w  c #A28778",
"e  c #AD8778",
"r  c #A48A7C",
"t  c #A98C7C",
"y  c #B58473",
"u  c #B4877B",
"i  c #BE877A",
"p  c #BE897C",
"a  c #E28177",
"s  c #E18178",
"d  c #A28B80",
"f  c #A59181",
"g  c #AB9283",
"h  c #A59288",
"j  c #AB958A",
"k  c #AD9B8D",
"l  c #B89587",
"z  c #B1978A",
"x  c #B19E93",
"c  c #BD9C91",
"v  c #B4A499",
"b  c #BDAB9C",
"n  c #B6AAA0",
"m  c #BBAFA4",
"M  c #C39082",
"N  c #C89385",
"B  c #C6978B",
"V  c #D1978D",
"C  c #D0988B",
"Z  c #D69E93",
"A  c #CBAA9E",
"S  c #DBA296",
"D  c #D6A49B",
"F  c #DEA398",
"G  c #E3A69B",
"H  c #CFAEA4",
"J  c #CFB1A7",
"K  c #C4B5AB",
"L  c #C3B9AD",
"P  c #C7BCB2",
"I  c #C8BCB5",
"U  c #DFBCB6",
"Y  c #E2A8A0",
"T  c #EAADA2",
"R  c #F3B4AA",
"E  c #FDB5AE",
"W  c #F6B9AE",
"Q  c #FBB8AF",
"!  c #E6B7B1",
"~  c #FDB6B1",
"^  c #F7BBB3",
"/  c #FCBAB3",
"(  c #FABEBA",
")  c #DEC1BB",
"_  c #F7C0B7",
"`  c #F3C6BD",
"'  c #FCC3BE",
"]  c #D6CCC3",
"[  c #DBD5CD",
"{  c #E7C8C0",
"}  c #EACCC4",
"|  c #FCC6C2",
" . c #F4CAC3",
".. c #FCCAC5",
"X. c #F0CEC9",
"o. c #FDCECA",
"O. c NONE",
"+. c #FED3CE",
"@. c #E5DFD8",
"#. c #FED5D1",
"$. c #FCDAD4",
"%. c #E6E2DE",
"&. c #EEEAE7",
"*. c #EBEEEC",
"=. c NONE",
"-. c gray93",
";. c #EEECED",
":. c #EDEEED",
">. c #EFEEED",
",. c #EFEDEE",
"<. c NONE",
"1. c #EDEFEF",
"2. c #EEEEEE",
"3. c #EFEEEE",
"4. c #EEEEEF",
"5. c #EFEFEF",
"6. c #EDEDED",
"7. c #FBE7E6",
"8. c #FCE9E7",
"9. c #F2EFED",
"0. c NONE",
"q. c #F0EFED",
"w. c #FDEBEA",
"e. c #F2F1ED",
"r. c #F0F1EE",
"t. c #F3F0EE",
"y. c #F2F1EE",
"u. c #ECEFF0",
"i. c #EFEEF0",
"p. c #EDEEF0",
"a. c NONE",
"s. c #FEF5F2",
"d. c #FEFEFA",
"f. c #FDFDFD",
"g. c #FCFEFD",
"h. c #FDFEFD",
"j. c #FDFFFD",
"k. c #FEFDFE",
"l. c #FFFDFE",
"z. c #FDFFFE",
"x. c #FEFEFE",
"c. c #FEFFFE",
"v. c #FFFFFE",
"b. c #FEFFFF",
"n. c NONE",
"m. c #FFFFFF",
/* pixels */
"=.=.=.n.n.=.=.=.n.n.=.=.n.n.n.=.=.n.n.n.0.=.n.n.=.=.=.n.n.=.=.=.",
"a.=.=.n.n.=.0.a.n.n.=.a.n.n.n.=.=.n.n.n.=.a.n.n.a.=.=.n.n.=.0.a.",
"=.=.=.n.n.=.=.=.n.n.=.=.n.n.n.=.=.n.n.n.=.=.n.n.=.=.=.n.n.=.=.=.",
"n.n.n.=.=.n.n.n.5.=.n.n.=.=.=.n.n.=.=.=.n.n.=.a.n.n.n.=.=.n.n.n.",
"n.n.n.=.=.n.n.n.a.d n.n.=.=.=.n.n.=.=.=.n.n.=.=.n.n.n.=.=.n.n.n.",
"=.=.=.n.n.=.=.=.O.+.{ w n.n.n.=.=.n.n.n.=.=.n.n.=.=.=.n.n.=.=.=.",
"=.=.=.n.n.=.0.j #...E ~ B g n.=.a.n.n.n.a.a.n.n.=.=.=.n.n.=.=.a.",
"=.a.=.n.n.=.y.% y G ! ..o./ W h ^ O.n.n.=.=.n.n.=.a.=.n.n.=.0.=.",
"n.n.n.=.a.k X.O.#.#.#.#.#.f.#.^ #.+.w =.n.n.a.=.n.n.n.=.=.n.n.n.",
"n.n.n.0.O.#.- K #.#.#.#.#.#.s.| #.#.O.=.n.n.0.=.n.n.n.=.a.n.n.n.",
"=.=.=.} #.#.U } +.#.#.#.#.#.#.3 #.#.#.$.=.i.n.n.=.i.=.n.n.=.[ =.",
"0.0.k $.#.#.#.` & M R #.#.#.#.1 ( ' ~ E 0.y.I j t j a.n.D h f =.",
"n.n._ #.#.#.5 5 7 7 #.#.#.#.#.#.( ' ~ T +.#.o.' E E E E w ` ] f.",
"n.n.Q #.#.+.a   9 6 $ #.#.#.q ) #.+.E p ..#.#.#.#.+.E E / ) f.n.",
"n.n.Q #.#.#.& 8 9 . s $.#.$.. J #...E C ..#.#.#.8.n.#...E ^ n.f.",
"=.i.e o.#.#.+.w 9 9 > #.#.#.#.#.#./ ~ 4 #.#.#.#.#.#.l.+.E ~ u.<.",
"=.=.=.Z #.#.#.e H $.$.#.#.#.#.#...E Q Q #.#.#.#.#.#.7.#.o.E x ;.",
"n.n.n.t.~ #.#.$.. # ) #.#.#.#.#.E E : E #.#.#.#.#.#.#.w.#.~ 3 n.",
"n.n.n.=.=.n.D | l 5 #.#.#.#.( E ~ : / #.#.#.#.#.#.#.#.#.#.~ 2 n.",
"n.n.n.=.=.n.n.v E E ..o.| ~ T i R W #.+.#.#.#.| | #.#.#.#./ 1 n.",
"=.=.0.n.n.=.=.0.g.E / / ~ ~ | #.#.#.#.#.#.#. ...#.#.#.#.#.E d =.",
"=.a.=.n.n.=.a.=.d.#.+.$.#.#.#.#.#.#.#.#.#.#.V #.#.#.#.#.#.E @.q.",
"n.n.n.=.=.n.n.n.n #.V E #.! #.#.#.#.#.#.#.+.~ #.#.#.#.+.E E l.n.",
"n.n.n.=.=.n.n.n.z #.E Z ( A +.#.| X.#.#.#...E #.#.#.#.| E u n.n.",
"=.=.=.n.n.=.i.y.$.#.E ; Y u #.#.Q $.#.#.#.+.E +.#.#.#.#.~ j =.;.",
"a.=.=.n.n.=.i.+ .  .S &.g.c #.#., #.#.#.#.#.W / #.#.#.+.E r =.=.",
"=.=.=.n.n.<.=.h k . q i.v #.+.E / E E E E ~ / , / O.#.E < =.y.<.",
"n.n.n.=.=.n.n.n.] L n.n.  $.^ / v 2 E / Q F < m o N E ~ =.n.n.n.",
"n.n.n.=.=.n.n.n.=.=.n.d.. g . @ n.=.=.=.n.n.=.=.A *   [ =.n.n.n.",
"=.=.=.n.n.=.=.=.n.n.=.=.P * f y.=.n.n.n.a.=.n.n.%.+ %.n.n.=.=.=.",
"=.=.=.n.n.=.=.a.n.n.a.=.n.n.n.=.=.n.n.n.=.=.n.n.*.*.=.n.n.=.=.a.",
"=.a.=.n.n.=.0.=.n.n.=.=.n.n.n.=.=.n.n.n.=.=.n.n.=.<.=.n.n.=.0.=."
};
