/* XPM */
static char *_95eced7dad8437ce138e18e01fa72c7LItL0rAFZ3xOwHOA[] = {
/* columns rows colors chars-per-pixel */
"32 32 202 2 ",
"   c #1C758D",
".  c #2C798D",
"X  c #267D97",
"o  c #298497",
"O  c #26859F",
"+  c #2C839C",
"@  c #29899D",
"#  c #34849B",
"$  c #368B97",
"%  c #0A8EB7",
"&  c #0D8DB9",
"*  c #158BB7",
"=  c #198DB8",
"-  c #198EB7",
";  c #0B90B7",
":  c #0C93BB",
">  c #0B98BE",
",  c #1393BC",
"<  c #1B96BD",
"1  c #159ABE",
"2  c #1B99BD",
"3  c #1D93B4",
"4  c #2987A0",
"5  c #2788A4",
"6  c #2B8BA6",
"7  c #258CAD",
"8  c #2C8CAC",
"9  c #2784AA",
"0  c #348DA4",
"q  c #388FAB",
"w  c #358DAD",
"e  c #2C90A8",
"r  c #3591A5",
"t  c #3B92A4",
"y  c #3493AD",
"u  c #3B96AB",
"i  c #258DB2",
"p  c #2B8EB1",
"a  c #2490B0",
"s  c #2D94B4",
"d  c #2F9BB6",
"f  c #2195BC",
"g  c #2A96B9",
"h  c #249CBE",
"j  c #2B9BBD",
"k  c #3395B3",
"l  c #3A97B3",
"z  c #359AB6",
"x  c #3A9BB4",
"c  c #3494BB",
"v  c #349BBA",
"b  c #3B9BBB",
"n  c #22A0BF",
"m  c #2FA1BF",
"M  c #3BA3B7",
"N  c #35A1BD",
"B  c #3BA2BC",
"V  c #32A8BE",
"C  c #408799",
"Z  c #428BA5",
"A  c #4392A6",
"S  c #449BAD",
"D  c #4C9BAE",
"F  c #449DB4",
"G  c #55A8A7",
"H  c #53A8AE",
"J  c #45A1B5",
"K  c #4BA4B6",
"L  c #4BAEB7",
"P  c #42A3BC",
"I  c #4BA6BC",
"U  c #4CAABC",
"Y  c #53A5B4",
"T  c #53AAB5",
"R  c #51A7B8",
"E  c #53ACBC",
"W  c #59A9B5",
"Q  c #5FB6BF",
"!  c #64B5BE",
"~  c #6CB7BE",
"^  c #0D9AC2",
"/  c #0E9EC9",
"(  c #1596C2",
")  c #149DC4",
"_  c #1C9DC2",
"`  c #239DC2",
"'  c #2D9FC1",
"]  c #339EC2",
"[  c #3B9EC2",
"{  c #369FCF",
"}  c #16A2C6",
"|  c #1BA3C5",
" . c #16A8C6",
".. c #1AA9C7",
"X. c #16A4C8",
"o. c #1CA6CB",
"O. c #16AACA",
"+. c #1BABCB",
"@. c #1CAFD0",
"#. c #1FB3D3",
"$. c #24A2C4",
"%. c #2BA4C4",
"&. c #2CAAC4",
"*. c #23A5CA",
"=. c #2BA5C9",
"-. c #24ACCC",
";. c #2CACCC",
":. c #25A8C5",
">. c #34A4C3",
",. c #3CA4C3",
"<. c #34ABC6",
"1. c #3CABC4",
"2. c #35A5C9",
"3. c #3AA6C8",
"4. c #33ACCB",
"5. c #3BABCA",
"6. c #25B2CD",
"7. c #2CB1CC",
"8. c #33B2CC",
"9. c #3CB3CC",
"0. c #3DB8CF",
"q. c #2DAED1",
"w. c #23AED1",
"e. c #26B3D3",
"r. c #2CB3D3",
"t. c #28B6D8",
"y. c #2EBAD9",
"u. c #35B4D2",
"i. c #3DB4D3",
"p. c #32BCD5",
"a. c #3CBCD3",
"s. c #39B0DA",
"d. c #33BBDC",
"f. c #3CBCDB",
"g. c #22BCE4",
"h. c #33BEE1",
"j. c #43A5C2",
"k. c #44ABC5",
"l. c #4BABC3",
"z. c #44ADCA",
"x. c #4BAFC8",
"c. c #51ADC4",
"v. c #44B2C5",
"b. c #4CB4C5",
"n. c #43B3CC",
"m. c #4CB3CC",
"M. c #4FB9CD",
"N. c #43BBCF",
"B. c #53B2C4",
"V. c #5CB5C4",
"C. c #5BB9C5",
"Z. c #53B4CB",
"A. c #53B9CE",
"S. c #5CBACC",
"D. c #40ACD4",
"F. c #43B3D2",
"G. c #4CB4D2",
"H. c #42BCD5",
"J. c #4BBCD3",
"K. c #43BBD9",
"L. c #56BBD3",
"P. c #5CBDD1",
"I. c #62BACB",
"U. c #6CBDC8",
"Y. c #68BAC4",
"T. c #60BFD1",
"R. c #40BFE3",
"E. c #3CC0D6",
"W. c #3CC4DB",
"Q. c #3CC6E2",
"!. c #34C8E8",
"~. c #3AD0EC",
"^. c #49C0CA",
"/. c #5CC1CF",
"(. c #43C2D5",
"). c #46C3DC",
"_. c #4DC4DB",
"`. c #47CDDF",
"'. c #4FC8DF",
"]. c #4CC0D5",
"[. c #5CC0D2",
"{. c #54CAD5",
"}. c #58CCD6",
"|. c #54C6D8",
" X c #67C3CE",
".X c #6ECBCF",
"XX c #6EC5C9",
"oX c #76C6C7",
"OX c #63C3D4",
"+X c #6CC5D8",
"@X c #71CEDB",
"#X c #6ED0DC",
"$X c #75D0D7",
"%X c #45C8E2",
"&X c #53CFE3",
"*X c #5DD2E4",
"=X c #60D1E0",
"-X c #92D3CE",
";X c #86D2D5",
":X c #A7E5DE",
">X c #8DDEE6",
",X c #B0E9E4",
/* pixels */
"` $.=.:.=.' v y r r x b.n.F.K. XU.~ Q k.j.,.,.v J 3.v d c d c c ",
"6 5 5 9 8 s r 6 e b.#X&Xf.i.].OXU.V.Q m.x.B v ' U K.4.=.$.` ` < ",
"6 p p p 7 - * , 2 V b./.A.v.U I I Y Y D 0 u S Y U x x b v v >.>.",
"j.c k p a a a s d x x x y r r r x F I j.v z B l.l.F P j.c i p 7 ",
"k k w 6 7 k z z d N V %.m m h h $.<.H.7.:.V ^.d.r.r.u.q.` _ =.J.",
"_ _ 2.h 3 1 _ _ ) / } } } } } 2 } | a.7.} 2 2 n $.=.&.0.).q.7.N.",
"X.^ : : : : > ^ ^ X.O.+. .} } 1 1 } &.e.| ) ) _ %.n.z.k.m.2.g i ",
"r.) ^ ^ : : > ^ }  ....... .+. .X...8.p.;.-.q.y.).'.9.$.' g v b ",
"9.%._ < ( ( ) o.o.O.O.O.+.+.@.O.@.6.E.`.{.~.g.g.~.W.$.: & & = _ ",
"8 y z B N ] %.;.*.w.e.@.O. . .+. . .6.E.:.| 7.}.a.| _ ` =.2.3.,.",
"v v z b b v ,.P q.o.+.t.#.+.O. . . .6.E.O.O.6.;.| | _ %.%.=.>.%.",
">.[ ] z.Z.P z j.,.%.4.w.e.t.e.-.+.@.6.(.Q.y.e.| } | } | _ =.,.,.",
"Z.L.G.n.m.L.L V z.3.,.v 4.;.7.-...| ..&.8.%XW.o.| } o.*.q.;.=.| ",
"l F B.U Y T U C.l.n.Z.z.v g j j h h n 2 2 =.8.H.u.;.;.;.=.=.` _ ",
"w 6 y F W oX>X;X! A.v.P.m.v s s k k v v j >.5.1.j.P P I j.k.5.=.",
"l.B y 6 @ u ~ E F b x M P B B B b B P ,.j.l.Z.l.v k 7 X w l v v ",
"XX-XI.Z.c.V.[.L.J.u.=._ :.%.%.m ,.B 3.5.j.j.j.j.j.c.k.c b c l w ",
":X,X@XS.m.%.j 4.(.W./ ^ : 1 > 1 , * * = f ] j.j.J I Z.Z.3.[ c.u ",
"(.u.*.N.B n _ , &.E.y./ > > : ; % ( 2.1.i.G.z.k.l.5.5.m.z.P l.D ",
"&X| ) _.v.$.( * _ u.W.Q.} > : ; % % , _ =.5.5.4.2.2.k.c.P l k b ",
"}.!.!.}.9.1 , , & ` W.|.r.X.1 : : : : } r.F.n.x.j.B ,.1.z.1.=.1 ",
"m.m.1.,.B B ] ` 3 , :._.8.6.:.+.o.-.r.4.k.,.z.0.8.;.;.8.8.4.:.2 ",
"N g g j j b u B N %.$.1.a.6.9.&.4.a.F.3.B 1.J.H.n.1.z.B.m.z.3.j ",
"f 1 = ( , 2 3 d j.B J 5.M.<.:.:.0.n.s.5.&.&.5.[.$X.XU.oX+X+X|.F.",
"' _ , , : % | '.7.<.B j.b v v v I S.i.$.8.b.C.C.b.B.Z.P.G.l.OXS.",
"2.` $.| , : 6.].7.8.x.l.x k s k 6 K n.` n.S.V.U P v B U x.m.x.S.",
"s.8.u.i.4.;.:.| | &.F.z.I l v g 9 k x p l ,.k.k.1.v g v l.v.A.A.",
"].m.5.5.>.N ,.3.2.k.k.k.k.b b b c ] { c c v v =.%.$.m g <.4.5.G.",
"Z.A.F.5.>.3.2.D.G.M.P x E E B.l.P K Q Y F P c.z.m 1.0.=.V n.A.OX",
"n.0.t.R.C.z.P.Z.U P t # u t 4 + l l y 0 r A $ t t u N 5.>.S.l.l.",
"7.u.f.f.k.x.U j.3.v.G H H A K S y M ,.j.j.S # # o o q 0 q # # + ",
"v N v k.z.z.z.z.<.2.>.' i.P y P K L P r 0 r 0 o     . $ Z # # 0 "
};
