/* XPM */
static char *_b04ae5a5d364f3a8dd34eba90ac6c226G6HoGsUKVSGfw2I[] = {
/* columns rows colors chars-per-pixel */
"32 32 178 2 ",
"   c white",
".  c gray94",
"X  c #464C50",
"o  c #CBCBCB",
"O  c #D3D4D3",
"+  c gray65",
"@  c #3B4043",
"#  c #FEFEFE",
"$  c #555C62",
"%  c #505458",
"&  c #616568",
"*  c #4F545A",
"=  c #4C5157",
"-  c #50565B",
";  c #6E7071",
":  c #5B6168",
">  c #595F66",
",  c #C3C3C3",
"<  c #C9CACA",
"1  c #61686F",
"2  c #42474B",
"3  c #4C5257",
"4  c #444A4E",
"5  c #60666D",
"6  c gray97",
"7  c #F8F8F8",
"8  c #404449",
"9  c #61676F",
"0  c #4D5359",
"q  c #FDFDFD",
"w  c #4C5155",
"e  c #877B28",
"r  c #C0AE35",
"t  c #43484C",
"y  c #404030",
"u  c #3E3A17",
"i  c #3E4347",
"p  c #F4F4F4",
"a  c gray62",
"s  c #60676E",
"d  c #4D5255",
"f  c #D1BD39",
"g  c #5E592A",
"h  c #3D413F",
"j  c #C2C6C7",
"k  c #737778",
"l  c #676B6D",
"z  c #414548",
"x  c #999C9D",
"c  c #B7BBBB",
"v  c #575B5F",
"b  c #5E656C",
"n  c #8D9192",
"m  c #606466",
"M  c #292D2F",
"N  c #2B2F31",
"B  c #0A0C0B",
"V  c #0B0D0B",
"C  c #484C50",
"Z  c gray99",
"A  c #595E60",
"S  c #52575A",
"D  c #5C6369",
"F  c #50565C",
"G  c #F9F9F9",
"H  c #484D52",
"J  c #60686F",
"K  c #5E656D",
"L  c #454A4E",
"P  c #797C7D",
"I  c #1A1C1B",
"U  c #575959",
"Y  c #353737",
"T  c #AFB3B4",
"R  c #676A6B",
"E  c #575E64",
"W  c gray93",
"Q  c #464B50",
"!  c #7F8282",
"~  c #B8BCBD",
"^  c #AEB1B2",
"/  c #4E5050",
"(  c #46494B",
")  c #53595E",
"_  c #61676E",
"`  c #BDBEBE",
"'  c #828686",
"]  c #989C9C",
"[  c #878B8B",
"{  c #8E9292",
"}  c #676B6A",
"|  c #4C5154",
" . c #5C6269",
".. c #818484",
"X. c #64686A",
"o. c #4E5357",
"O. c #BCC0C0",
"+. c #5E6365",
"@. c #66696A",
"#. c gray91",
"$. c #7C7F80",
"%. c #838586",
"&. c #65696B",
"*. c #484D50",
"=. c #BEBFBF",
"-. c #DDDDDD",
";. c #C1C5C6",
":. c #6E7274",
">. c gray92",
",. c #EAEAEA",
"<. c #4D5358",
"1. c #8C8F8F",
"2. c #515559",
"3. c #8D8E8E",
"4. c #E7E7E7",
"5. c #ACACAC",
"6. c #53595F",
"7. c #5C6062",
"8. c #BEC2C3",
"9. c #363B3E",
"0. c #606465",
"q. c gray98",
"w. c #E5E6E6",
"e. c #888B8C",
"r. c #5F666D",
"t. c #60676D",
"y. c #FBFBFB",
"u. c #F5F5F4",
"i. c gainsboro",
"p. c #808384",
"a. c #B7BBBC",
"s. c #4D4F50",
"d. c #616567",
"f. c #D4D5D4",
"g. c #4C5156",
"h. c #F3F3F3",
"j. c #CECECE",
"k. c #3E4346",
"l. c #A4A6A5",
"z. c #939495",
"x. c #555B61",
"c. c #B9BABA",
"v. c #4B4F52",
"b. c #A6AAAB",
"n. c #41474B",
"m. c #858687",
"M. c #B5B6B5",
"N. c #6F7374",
"B. c #989999",
"V. c #41464B",
"C. c gray96",
"Z. c #41474A",
"A. c #8C8E8F",
"S. c #AEAFAE",
"D. c #646769",
"F. c #8B8C8B",
"G. c #5F6365",
"H. c #747677",
"J. c #474C51",
"K. c #5D646B",
"L. c #5A6167",
"P. c #F4F4F3",
"I. c #D5D5D5",
"U. c #A3A4A4",
"Y. c #575B5E",
"T. c #61686E",
"R. c #4B5155",
"E. c #F1F1F1",
"W. c #ECECEC",
"Q. c #EEEEEE",
"!. c #5D646A",
"~. c #4A4F53",
"^. c #F6F5F5",
"/. c #F3F3F2",
"(. c #464A4D",
"). c #595F65",
"_. c #5E646B",
"`. c #858788",
/* pixels */
"                                                                ",
"                . X o             O + @                         ",
"                # $ X % & * = - ; : > ,                         ",
"                  < 1 2 3 1 1 1 1 4 5 6                         ",
"                  7 8 1 1 1 1 9 1 1 0                           ",
"                q w 1 1 e r t y u i 1 p                         ",
"                a 1 s d f g 1 1 h j k .                         ",
"                l 1 z j j x 1 1 1 j c p                         ",
"                v 1 b n j m M N B V 1 1 C Z                     ",
"                A 1 1 S j B B B B B l D 1 F G                   ",
"                H J K L P I B U Y T R 2 1 1 E W                 ",
"                1 1 Q s ! ~ j j ^ j / ( ) 1 1 _ `               ",
"                _ 1 1 1 ' ] [ { } j |  .# ..1 1 X.              ",
"                L 1 1 o.j j j j O.j +.1 # @.1 1 #.              ",
"                $.1 1 %.j j j j j j &.1 # 1 1 *.                ",
"                =.1 1 -.;.j j j j j :.1 # 1 1 >.                ",
"                ,.1 1 p <.j j j j j 1.1 2.1 3.                  ",
"                4.1 1 5.6.7.j j j j 8.1 9.1 0.q.                ",
"                w.1 1 | o 1 e.j j j j r.1 1 1 t.y.              ",
"                u.1 1 1   i.1 p.j j j a.1 s.d.f.                ",
"                  g.1 1 h.  j.s j j j j 1 k.l.                  ",
"                  z.1 1 x.y.  c.v.j j b.1 n.1 m.                ",
"                  y.) 1 1 M.    D N.z.B.1 V.1 J 7               ",
"                      7 C.      Z.1 # A.1 S.D.1 F.              ",
"                                G.1 H.J.K.L.P.* I.              ",
"                                U.1 1 1 1 1 Y.                  ",
"                                # T.F i R.1 1 E.                ",
"                                # s 1 1 1 1 1 1 W.              ",
"                                Q.* 1 1 r.!.1 2 ~.              ",
"                                  ^./.p   (.)._.`.              ",
"                                                                ",
"                                                                "
};
